<svg xmlns="http://www.w3.org/2000/svg" xmlns:xlink="http://www.w3.org/1999/xlink" width="500" zoomAndPan="magnify" viewBox="0 0 375 374.999991" height="500" preserveAspectRatio="xMidYMid meet" version="1.0"><defs><g/><clipPath id="bd3cbbfcf2"><path d="M 158 100.882812 L 228 100.882812 L 228 194 L 158 194 Z M 158 100.882812 " clip-rule="nonzero"/></clipPath><clipPath id="dc683fa6fc"><path d="M 146.171875 124 L 205 124 L 205 181 L 146.171875 181 Z M 146.171875 124 " clip-rule="nonzero"/></clipPath></defs><g clip-path="url(#bd3cbbfcf2)"><path fill="#0583d2" d="M 182.007812 111.921875 C 176.386719 111.921875 170.761719 111.921875 165.140625 111.914062 C 164.371094 111.914062 163.585938 111.929688 162.835938 111.800781 C 159.789062 111.296875 158.105469 109.152344 158.3125 106.109375 C 158.515625 103.09375 160.644531 101.074219 163.820312 101.027344 C 169.132812 100.949219 174.449219 100.910156 179.765625 100.917969 C 186.117188 100.921875 192.472656 100.953125 198.828125 101.039062 C 213.730469 101.238281 225.433594 111.628906 227.335938 126.4375 C 228.800781 137.84375 222.097656 155.207031 203.757812 158.050781 C 200.089844 158.621094 196.320312 158.585938 192.59375 158.71875 C 189.59375 158.824219 186.585938 158.734375 183.582031 158.777344 C 181.890625 158.800781 180.90625 159.183594 180.925781 161.355469 C 180.992188 167.902344 180.9375 174.453125 180.917969 181.003906 C 180.910156 183.390625 180.945312 185.78125 180.855469 188.164062 C 180.699219 192.148438 177.0625 194.601562 173.359375 193.238281 C 171.160156 192.433594 170.011719 190.710938 169.972656 188.457031 C 169.855469 181.875 169.855469 175.289062 169.84375 168.703125 C 169.839844 164.160156 169.890625 159.613281 169.925781 155.070312 C 169.929688 154.296875 169.929688 153.523438 170.027344 152.761719 C 170.445312 149.351562 172.160156 147.765625 175.625 147.730469 C 180.667969 147.675781 185.714844 147.730469 190.761719 147.695312 C 193.953125 147.675781 197.152344 147.683594 200.339844 147.503906 C 211.089844 146.902344 222.488281 133.214844 213.089844 119.496094 C 209.882812 114.8125 205.425781 112.265625 199.800781 112.101562 C 193.875 111.929688 187.941406 112.0625 182.007812 112.0625 C 182.007812 112.019531 182.007812 111.96875 182.007812 111.921875 Z M 182.007812 111.921875 " fill-opacity="1" fill-rule="nonzero"/></g><g clip-path="url(#dc683fa6fc)"><path fill="#0583d2" d="M 165.070312 180.578125 C 162.90625 179.410156 160.902344 178.574219 159.171875 177.347656 C 150.535156 171.238281 146.160156 162.777344 146.222656 152.238281 C 146.296875 139.785156 155.1875 128.265625 166.804688 125.4375 C 169.921875 124.675781 173.199219 124.363281 176.417969 124.292969 C 184.078125 124.121094 191.746094 124.191406 199.40625 124.214844 C 201.59375 124.222656 204.054688 126.578125 204.480469 128.90625 C 204.914062 131.261719 203.417969 134.132812 201.097656 134.996094 C 199.976562 135.414062 198.699219 135.574219 197.492188 135.582031 C 190.058594 135.652344 182.625 135.59375 175.191406 135.675781 C 165.226562 135.785156 157.410156 144.113281 157.976562 154.054688 C 158.261719 159.054688 160.367188 163.242188 164.242188 166.464844 C 164.832031 166.957031 165.09375 167.433594 165.085938 168.203125 C 165.050781 172.171875 165.070312 176.136719 165.070312 180.578125 Z M 165.070312 180.578125 " fill-opacity="1" fill-rule="nonzero"/></g><path fill="#0583d2" d="M 185.472656 182.015625 C 185.472656 178.160156 185.472656 174.480469 185.472656 170.628906 C 186.410156 170.628906 187.28125 170.628906 188.15625 170.628906 C 195.164062 170.636719 202.171875 170.628906 209.183594 170.65625 C 210.019531 170.660156 210.882812 170.75 211.695312 170.949219 C 214.558594 171.652344 216.246094 173.847656 216.144531 176.628906 C 216.039062 179.441406 214.238281 181.445312 211.296875 181.960938 C 210.582031 182.089844 209.84375 182.15625 209.117188 182.160156 C 202.148438 182.175781 195.175781 182.179688 188.207031 182.167969 C 187.328125 182.167969 186.449219 182.070312 185.472656 182.015625 Z M 185.472656 182.015625 " fill-opacity="1" fill-rule="nonzero"/><g fill="#ffffff" fill-opacity="1"><g transform="translate(77.022879, 236.703548)"><g><path d="M 19.515625 -28.6875 L 19.515625 -22.953125 L 14.953125 -22.953125 C 14.003906 -22.953125 13.09375 -22.703125 12.21875 -22.203125 C 11.34375 -21.710938 10.5625 -21.066406 9.875 -20.265625 C 9.195312 -19.460938 8.648438 -18.539062 8.234375 -17.5 C 7.828125 -16.457031 7.625 -15.40625 7.625 -14.34375 C 7.625 -13.28125 7.828125 -12.226562 8.234375 -11.1875 C 8.648438 -10.144531 9.191406 -9.222656 9.859375 -8.421875 C 10.523438 -7.617188 11.300781 -6.96875 12.1875 -6.46875 C 13.082031 -5.976562 14.003906 -5.734375 14.953125 -5.734375 L 19.515625 -5.734375 L 19.515625 0 L 14.59375 0 C 12.894531 0 11.242188 -0.335938 9.640625 -1.015625 C 8.046875 -1.703125 6.617188 -2.671875 5.359375 -3.921875 C 4.109375 -5.179688 3.109375 -6.691406 2.359375 -8.453125 C 1.609375 -10.222656 1.234375 -12.1875 1.234375 -14.34375 C 1.234375 -16.476562 1.609375 -18.414062 2.359375 -20.15625 C 3.109375 -21.90625 4.101562 -23.414062 5.34375 -24.6875 C 6.59375 -25.957031 8.019531 -26.941406 9.625 -27.640625 C 11.238281 -28.335938 12.921875 -28.6875 14.671875 -28.6875 Z M 19.515625 -28.6875 "/></g></g></g><g fill="#ffffff" fill-opacity="1"><g transform="translate(97.512845, 236.703548)"><g><path d="M 7.171875 -19.921875 L 7.171875 -8.15625 C 7.171875 -7.175781 7.378906 -6.363281 7.796875 -5.71875 C 8.222656 -5.070312 9.039062 -4.75 10.25 -4.75 C 11.445312 -4.75 12.253906 -5.070312 12.671875 -5.71875 C 13.097656 -6.363281 13.3125 -7.175781 13.3125 -8.15625 L 13.3125 -19.921875 L 18.5625 -19.921875 L 18.5625 -7.046875 C 18.5625 -6.222656 18.453125 -5.421875 18.234375 -4.640625 C 18.015625 -3.867188 17.679688 -3.160156 17.234375 -2.515625 C 16.785156 -1.878906 16.210938 -1.320312 15.515625 -0.84375 C 14.816406 -0.363281 13.972656 -0.03125 12.984375 0.15625 L 12.984375 8.4375 L 7.5 8.4375 L 7.5 0.15625 C 5.75 -0.21875 4.378906 -1.039062 3.390625 -2.3125 C 2.410156 -3.582031 1.921875 -5.160156 1.921875 -7.046875 L 1.921875 -19.921875 Z M 7.171875 -19.921875 "/></g></g></g><g fill="#ffffff" fill-opacity="1"><g transform="translate(118.002811, 236.703548)"><g><path d="M 7.125 -28.6875 L 7.125 -9.84375 C 7.125 -8.445312 7.546875 -7.289062 8.390625 -6.375 C 9.242188 -5.457031 10.378906 -5 11.796875 -5 C 13.054688 -5 14.109375 -5.457031 14.953125 -6.375 C 15.804688 -7.289062 16.234375 -8.484375 16.234375 -9.953125 C 16.234375 -11.429688 15.800781 -12.628906 14.9375 -13.546875 C 14.070312 -14.460938 12.972656 -14.921875 11.640625 -14.921875 C 11.085938 -14.921875 10.585938 -14.863281 10.140625 -14.75 C 9.691406 -14.644531 9.25 -14.492188 8.8125 -14.296875 L 8.8125 -19.84375 C 9.351562 -19.976562 9.875 -20.101562 10.375 -20.21875 C 10.882812 -20.34375 11.414062 -20.40625 11.96875 -20.40625 C 13.332031 -20.40625 14.59375 -20.125 15.75 -19.5625 C 16.914062 -19.007812 17.921875 -18.253906 18.765625 -17.296875 C 19.617188 -16.335938 20.28125 -15.226562 20.75 -13.96875 C 21.226562 -12.71875 21.46875 -11.394531 21.46875 -10 C 21.46875 -8.519531 21.222656 -7.140625 20.734375 -5.859375 C 20.242188 -4.578125 19.566406 -3.460938 18.703125 -2.515625 C 17.847656 -1.578125 16.816406 -0.84375 15.609375 -0.3125 C 14.410156 0.21875 13.113281 0.484375 11.71875 0.484375 C 10.269531 0.484375 8.941406 0.210938 7.734375 -0.328125 C 6.535156 -0.867188 5.5 -1.609375 4.625 -2.546875 C 3.75 -3.492188 3.070312 -4.597656 2.59375 -5.859375 C 2.125 -7.117188 1.890625 -8.445312 1.890625 -9.84375 L 1.890625 -28.6875 Z M 7.125 -28.6875 "/></g></g></g><g fill="#ffffff" fill-opacity="1"><g transform="translate(140.787657, 236.703548)"><g><path d="M 10.609375 -6.921875 L 8.078125 -10.25 L 13.28125 -14.265625 C 13.007812 -14.566406 12.644531 -14.789062 12.1875 -14.9375 C 11.738281 -15.09375 11.242188 -15.171875 10.703125 -15.171875 C 10.046875 -15.171875 9.441406 -15.03125 8.890625 -14.75 C 8.347656 -14.476562 7.878906 -14.109375 7.484375 -13.640625 C 7.085938 -13.179688 6.78125 -12.632812 6.5625 -12 C 6.34375 -11.375 6.234375 -10.691406 6.234375 -9.953125 C 6.234375 -9.273438 6.363281 -8.617188 6.625 -7.984375 C 6.882812 -7.359375 7.238281 -6.804688 7.6875 -6.328125 C 8.132812 -5.847656 8.664062 -5.460938 9.28125 -5.171875 C 9.894531 -4.890625 10.554688 -4.75 11.265625 -4.75 C 12.578125 -4.75 13.722656 -5.125 14.703125 -5.875 C 15.691406 -6.632812 16.296875 -7.679688 16.515625 -9.015625 L 21.796875 -8.4375 C 21.523438 -7.050781 21.066406 -5.8125 20.421875 -4.71875 C 19.785156 -3.625 19.003906 -2.6875 18.078125 -1.90625 C 17.148438 -1.125 16.085938 -0.53125 14.890625 -0.125 C 13.703125 0.28125 12.425781 0.484375 11.0625 0.484375 C 9.59375 0.484375 8.234375 0.21875 6.984375 -0.3125 C 5.742188 -0.84375 4.675781 -1.570312 3.78125 -2.5 C 2.894531 -3.425781 2.207031 -4.523438 1.71875 -5.796875 C 1.226562 -7.066406 0.984375 -8.453125 0.984375 -9.953125 C 0.984375 -11.460938 1.226562 -12.859375 1.71875 -14.140625 C 2.207031 -15.421875 2.898438 -16.523438 3.796875 -17.453125 C 4.703125 -18.390625 5.769531 -19.113281 7 -19.625 C 8.238281 -20.144531 9.59375 -20.40625 11.0625 -20.40625 C 13.363281 -20.40625 15.335938 -19.898438 16.984375 -18.890625 C 18.640625 -17.878906 19.890625 -16.421875 20.734375 -14.515625 Z M 10.609375 -6.921875 "/></g></g></g><g fill="#ffffff" fill-opacity="1"><g transform="translate(163.572503, 236.703548)"><g><path d="M 13.078125 -14.59375 L 11.890625 -14.59375 C 10.410156 -14.59375 9.300781 -14.144531 8.5625 -13.25 C 7.820312 -12.363281 7.453125 -11.238281 7.453125 -9.875 L 7.453125 0 L 1.890625 0 L 1.890625 -19.921875 L 6.84375 -19.921875 L 6.84375 -16.140625 L 6.921875 -16.140625 C 7.421875 -17.484375 8.101562 -18.488281 8.96875 -19.15625 C 9.84375 -19.832031 10.867188 -20.171875 12.046875 -20.171875 L 13.078125 -20.171875 Z M 13.078125 -14.59375 "/></g></g></g><g fill="#ffffff" fill-opacity="1"><g transform="translate(177.218828, 236.703548)"><g/></g></g><g fill="#ffffff" fill-opacity="1"><g transform="translate(188.611244, 236.703548)"><g><path d="M 21.921875 -19.390625 C 21.921875 -18.023438 21.679688 -16.742188 21.203125 -15.546875 C 20.734375 -14.359375 20.0625 -13.320312 19.1875 -12.4375 C 18.3125 -11.550781 17.269531 -10.851562 16.0625 -10.34375 C 14.863281 -9.84375 13.523438 -9.59375 12.046875 -9.59375 L 9.75 -9.59375 L 9.75 -15.328125 C 9.96875 -15.328125 10.195312 -15.328125 10.4375 -15.328125 C 10.6875 -15.328125 10.921875 -15.34375 11.140625 -15.375 C 12.890625 -15.476562 14.113281 -15.84375 14.8125 -16.46875 C 15.507812 -17.101562 15.859375 -18.0625 15.859375 -19.34375 C 15.859375 -20.65625 15.515625 -21.664062 14.828125 -22.375 C 14.148438 -23.082031 13.195312 -23.4375 11.96875 -23.4375 C 10.738281 -23.4375 9.78125 -23.082031 9.09375 -22.375 C 8.414062 -21.664062 8.078125 -20.695312 8.078125 -19.46875 L 8.078125 0 L 2.015625 0 L 2.015625 -19.46875 C 2.015625 -20.78125 2.242188 -22.019531 2.703125 -23.1875 C 3.171875 -24.363281 3.832031 -25.394531 4.6875 -26.28125 C 5.550781 -27.175781 6.597656 -27.882812 7.828125 -28.40625 C 9.054688 -28.925781 10.4375 -29.1875 11.96875 -29.1875 C 13.445312 -29.1875 14.789062 -28.929688 16 -28.421875 C 17.21875 -27.921875 18.269531 -27.222656 19.15625 -26.328125 C 20.050781 -25.441406 20.734375 -24.40625 21.203125 -23.21875 C 21.679688 -22.03125 21.921875 -20.753906 21.921875 -19.390625 Z M 21.921875 -19.390625 "/></g></g></g><g fill="#ffffff" fill-opacity="1"><g transform="translate(211.39609, 236.703548)"><g><path d="M 7.171875 -28.6875 L 7.171875 0 L 1.921875 0 L 1.921875 -28.6875 Z M 7.171875 -28.6875 "/></g></g></g><g fill="#ffffff" fill-opacity="1"><g transform="translate(220.49364, 236.703548)"><g><path d="M 20.90625 0 L 15.65625 0 L 15.65625 -11.3125 C 15.65625 -12.40625 15.265625 -13.320312 14.484375 -14.0625 C 13.703125 -14.800781 12.535156 -15.171875 10.984375 -15.171875 C 10.359375 -15.171875 9.773438 -15.03125 9.234375 -14.75 C 8.703125 -14.476562 8.238281 -14.101562 7.84375 -13.625 C 7.445312 -13.144531 7.132812 -12.59375 6.90625 -11.96875 C 6.675781 -11.34375 6.5625 -10.671875 6.5625 -9.953125 C 6.5625 -9.296875 6.675781 -8.675781 6.90625 -8.09375 C 7.132812 -7.507812 7.453125 -7.003906 7.859375 -6.578125 C 8.273438 -6.148438 8.765625 -5.804688 9.328125 -5.546875 C 9.890625 -5.285156 10.492188 -5.15625 11.140625 -5.15625 C 11.722656 -5.15625 12.238281 -5.207031 12.6875 -5.3125 C 13.132812 -5.425781 13.617188 -5.582031 14.140625 -5.78125 L 14.140625 -0.328125 C 13.453125 -0.191406 12.847656 -0.078125 12.328125 0.015625 C 11.816406 0.109375 11.3125 0.15625 10.8125 0.15625 C 9.394531 0.15625 8.101562 -0.0859375 6.9375 -0.578125 C 5.78125 -1.066406 4.785156 -1.75 3.953125 -2.625 C 3.117188 -3.5 2.46875 -4.539062 2 -5.75 C 1.539062 -6.96875 1.3125 -8.300781 1.3125 -9.75 C 1.3125 -11.28125 1.554688 -12.703125 2.046875 -14.015625 C 2.535156 -15.328125 3.210938 -16.453125 4.078125 -17.390625 C 4.941406 -18.335938 5.96875 -19.078125 7.15625 -19.609375 C 8.34375 -20.140625 9.644531 -20.40625 11.0625 -20.40625 C 12.5625 -20.40625 13.910156 -20.179688 15.109375 -19.734375 C 16.316406 -19.285156 17.351562 -18.664062 18.21875 -17.875 C 19.082031 -17.082031 19.742188 -16.148438 20.203125 -15.078125 C 20.671875 -14.015625 20.90625 -12.867188 20.90625 -11.640625 Z M 20.90625 0 "/></g></g></g><g fill="#ffffff" fill-opacity="1"><g transform="translate(243.278486, 236.703548)"><g><path d="M 18.484375 0 L 13.234375 0 L 13.234375 -12.09375 C 13.234375 -13.019531 12.976562 -13.765625 12.46875 -14.328125 C 11.96875 -14.890625 11.226562 -15.171875 10.25 -15.171875 C 9.257812 -15.171875 8.507812 -14.890625 8 -14.328125 C 7.5 -13.765625 7.25 -13.019531 7.25 -12.09375 L 7.25 0 L 2.015625 0 L 2.015625 -13.890625 C 2.015625 -15.859375 2.726562 -17.4375 4.15625 -18.625 C 5.59375 -19.8125 7.625 -20.40625 10.25 -20.40625 C 12.875 -20.40625 14.898438 -19.8125 16.328125 -18.625 C 17.765625 -17.4375 18.484375 -15.859375 18.484375 -13.890625 Z M 18.484375 0 "/></g></g></g><g fill="#ffffff" fill-opacity="1"><g transform="translate(263.768453, 236.703548)"><g><path d="M 10.609375 -6.921875 L 8.078125 -10.25 L 13.28125 -14.265625 C 13.007812 -14.566406 12.644531 -14.789062 12.1875 -14.9375 C 11.738281 -15.09375 11.242188 -15.171875 10.703125 -15.171875 C 10.046875 -15.171875 9.441406 -15.03125 8.890625 -14.75 C 8.347656 -14.476562 7.878906 -14.109375 7.484375 -13.640625 C 7.085938 -13.179688 6.78125 -12.632812 6.5625 -12 C 6.34375 -11.375 6.234375 -10.691406 6.234375 -9.953125 C 6.234375 -9.273438 6.363281 -8.617188 6.625 -7.984375 C 6.882812 -7.359375 7.238281 -6.804688 7.6875 -6.328125 C 8.132812 -5.847656 8.664062 -5.460938 9.28125 -5.171875 C 9.894531 -4.890625 10.554688 -4.75 11.265625 -4.75 C 12.578125 -4.75 13.722656 -5.125 14.703125 -5.875 C 15.691406 -6.632812 16.296875 -7.679688 16.515625 -9.015625 L 21.796875 -8.4375 C 21.523438 -7.050781 21.066406 -5.8125 20.421875 -4.71875 C 19.785156 -3.625 19.003906 -2.6875 18.078125 -1.90625 C 17.148438 -1.125 16.085938 -0.53125 14.890625 -0.125 C 13.703125 0.28125 12.425781 0.484375 11.0625 0.484375 C 9.59375 0.484375 8.234375 0.21875 6.984375 -0.3125 C 5.742188 -0.84375 4.675781 -1.570312 3.78125 -2.5 C 2.894531 -3.425781 2.207031 -4.523438 1.71875 -5.796875 C 1.226562 -7.066406 0.984375 -8.453125 0.984375 -9.953125 C 0.984375 -11.460938 1.226562 -12.859375 1.71875 -14.140625 C 2.207031 -15.421875 2.898438 -16.523438 3.796875 -17.453125 C 4.703125 -18.390625 5.769531 -19.113281 7 -19.625 C 8.238281 -20.144531 9.59375 -20.40625 11.0625 -20.40625 C 13.363281 -20.40625 15.335938 -19.898438 16.984375 -18.890625 C 18.640625 -17.878906 19.890625 -16.421875 20.734375 -14.515625 Z M 10.609375 -6.921875 "/></g></g></g><g fill="#ffffff" fill-opacity="1"><g transform="translate(286.553298, 236.703548)"><g><path d="M 6.796875 -25.25 L 6.796875 -19.921875 L 10.609375 -19.921875 L 10.609375 -14.84375 L 6.796875 -14.84375 L 6.796875 -7.34375 C 6.796875 -6.707031 6.953125 -6.195312 7.265625 -5.8125 C 7.585938 -5.4375 8.0625 -5.25 8.6875 -5.25 L 10.609375 -5.25 L 10.609375 0 L 7.703125 0 C 3.609375 0 1.5625 -2.363281 1.5625 -7.09375 L 1.5625 -25.25 Z M 6.796875 -25.25 "/></g></g></g><g fill="#ffffff" fill-opacity="1"><g transform="translate(297.949679, 236.703548)"><g/></g></g><g fill="#ffffff" fill-opacity="1"><g transform="translate(152.866069, 263.920886)"><g><path d="M 11.71875 0 L 9.578125 0 L 9.578125 -7.203125 L 3.875 -7.203125 L 3.875 -9.203125 L 9.578125 -9.203125 L 9.578125 -10.078125 C 9.578125 -10.835938 9.484375 -11.472656 9.296875 -11.984375 C 9.109375 -12.492188 8.863281 -12.90625 8.5625 -13.21875 C 8.257812 -13.539062 7.910156 -13.773438 7.515625 -13.921875 C 7.128906 -14.066406 6.722656 -14.140625 6.296875 -14.140625 C 5.285156 -14.140625 4.484375 -13.789062 3.890625 -13.09375 C 3.304688 -12.394531 3.015625 -11.457031 3.015625 -10.28125 L 3.015625 0 L 0.890625 0 L 0.890625 -10.171875 C 0.890625 -11.035156 1.019531 -11.832031 1.28125 -12.5625 C 1.539062 -13.289062 1.910156 -13.921875 2.390625 -14.453125 C 2.867188 -14.984375 3.4375 -15.394531 4.09375 -15.6875 C 4.757812 -15.976562 5.492188 -16.125 6.296875 -16.125 C 7.078125 -16.125 7.800781 -15.976562 8.46875 -15.6875 C 9.132812 -15.394531 9.707031 -14.988281 10.1875 -14.46875 C 10.675781 -13.945312 11.050781 -13.316406 11.3125 -12.578125 C 11.582031 -11.847656 11.71875 -11.046875 11.71875 -10.171875 Z M 11.71875 0 "/></g></g></g><g fill="#ffffff" fill-opacity="1"><g transform="translate(165.457668, 263.920886)"><g><path d="M 11.6875 -0.75 C 11.6875 0.144531 11.554688 0.953125 11.296875 1.671875 C 11.046875 2.398438 10.675781 3.019531 10.1875 3.53125 C 9.707031 4.039062 9.113281 4.441406 8.40625 4.734375 C 7.707031 5.023438 6.90625 5.171875 6 5.171875 C 5.394531 5.171875 4.796875 5.113281 4.203125 5 C 3.609375 4.882812 3.015625 4.726562 2.421875 4.53125 L 2.90625 2.71875 C 3.382812 2.851562 3.875 2.976562 4.375 3.09375 C 4.882812 3.207031 5.394531 3.265625 5.90625 3.265625 C 7.0625 3.265625 7.984375 2.960938 8.671875 2.359375 C 9.359375 1.765625 9.703125 0.945312 9.703125 -0.09375 L 9.703125 -5.328125 C 9.703125 -5.867188 9.617188 -6.375 9.453125 -6.84375 C 9.285156 -7.3125 9.050781 -7.722656 8.75 -8.078125 C 8.445312 -8.429688 8.082031 -8.707031 7.65625 -8.90625 C 7.226562 -9.101562 6.757812 -9.203125 6.25 -9.203125 C 5.707031 -9.203125 5.21875 -9.101562 4.78125 -8.90625 C 4.351562 -8.707031 3.984375 -8.429688 3.671875 -8.078125 C 3.367188 -7.734375 3.132812 -7.3125 2.96875 -6.8125 C 2.800781 -6.320312 2.71875 -5.78125 2.71875 -5.1875 C 2.71875 -4.65625 2.804688 -4.175781 2.984375 -3.75 C 3.171875 -3.320312 3.425781 -2.957031 3.75 -2.65625 C 4.070312 -2.351562 4.457031 -2.113281 4.90625 -1.9375 C 5.351562 -1.757812 5.835938 -1.671875 6.359375 -1.671875 C 6.816406 -1.671875 7.253906 -1.757812 7.671875 -1.9375 C 8.097656 -2.125 8.507812 -2.332031 8.90625 -2.5625 L 8.90625 -0.5 C 8.53125 -0.289062 8.101562 -0.117188 7.625 0.015625 C 7.144531 0.148438 6.710938 0.21875 6.328125 0.21875 C 5.523438 0.21875 4.78125 0.0820312 4.09375 -0.1875 C 3.414062 -0.46875 2.828125 -0.859375 2.328125 -1.359375 C 1.828125 -1.859375 1.429688 -2.441406 1.140625 -3.109375 C 0.859375 -3.785156 0.71875 -4.515625 0.71875 -5.296875 C 0.71875 -6.128906 0.851562 -6.898438 1.125 -7.609375 C 1.40625 -8.316406 1.789062 -8.925781 2.28125 -9.4375 C 2.78125 -9.957031 3.375 -10.363281 4.0625 -10.65625 C 4.75 -10.945312 5.507812 -11.09375 6.34375 -11.09375 C 7.144531 -11.09375 7.875 -10.945312 8.53125 -10.65625 C 9.1875 -10.363281 9.75 -9.96875 10.21875 -9.46875 C 10.6875 -8.96875 11.046875 -8.394531 11.296875 -7.75 C 11.554688 -7.101562 11.6875 -6.421875 11.6875 -5.703125 Z M 11.6875 -0.75 "/></g></g></g><g fill="#ffffff" fill-opacity="1"><g transform="translate(178.049267, 263.920886)"><g><path d="M 4.234375 -3.578125 L 3.421875 -5.171875 L 8.796875 -8.15625 C 8.410156 -8.53125 8.046875 -8.796875 7.703125 -8.953125 C 7.367188 -9.117188 6.910156 -9.203125 6.328125 -9.203125 C 5.796875 -9.203125 5.3125 -9.109375 4.875 -8.921875 C 4.445312 -8.742188 4.070312 -8.488281 3.75 -8.15625 C 3.4375 -7.820312 3.191406 -7.425781 3.015625 -6.96875 C 2.847656 -6.507812 2.765625 -6 2.765625 -5.4375 C 2.765625 -4.875 2.847656 -4.363281 3.015625 -3.90625 C 3.191406 -3.445312 3.4375 -3.050781 3.75 -2.71875 C 4.070312 -2.382812 4.445312 -2.125 4.875 -1.9375 C 5.3125 -1.757812 5.796875 -1.671875 6.328125 -1.671875 C 7.367188 -1.671875 8.171875 -1.9375 8.734375 -2.46875 C 9.296875 -3.007812 9.707031 -3.878906 9.96875 -5.078125 L 11.984375 -4.828125 C 11.910156 -4.066406 11.71875 -3.375 11.40625 -2.75 C 11.09375 -2.125 10.679688 -1.59375 10.171875 -1.15625 C 9.671875 -0.71875 9.09375 -0.378906 8.4375 -0.140625 C 7.78125 0.0976562 7.078125 0.21875 6.328125 0.21875 C 5.554688 0.21875 4.828125 0.078125 4.140625 -0.203125 C 3.453125 -0.492188 2.851562 -0.882812 2.34375 -1.375 C 1.832031 -1.875 1.425781 -2.472656 1.125 -3.171875 C 0.820312 -3.867188 0.671875 -4.625 0.671875 -5.4375 C 0.671875 -6.269531 0.828125 -7.03125 1.140625 -7.71875 C 1.453125 -8.414062 1.863281 -9.015625 2.375 -9.515625 C 2.894531 -10.015625 3.492188 -10.398438 4.171875 -10.671875 C 4.847656 -10.953125 5.566406 -11.09375 6.328125 -11.09375 C 7.609375 -11.09375 8.675781 -10.785156 9.53125 -10.171875 C 10.382812 -9.554688 11.066406 -8.71875 11.578125 -7.65625 Z M 4.234375 -3.578125 "/></g></g></g><g fill="#ffffff" fill-opacity="1"><g transform="translate(190.640866, 263.920886)"><g><path d="M 10.3125 0 L 8.3125 0 L 8.3125 -6.40625 C 8.3125 -6.769531 8.242188 -7.117188 8.109375 -7.453125 C 7.972656 -7.796875 7.785156 -8.097656 7.546875 -8.359375 C 7.316406 -8.617188 7.039062 -8.820312 6.71875 -8.96875 C 6.394531 -9.125 6.039062 -9.203125 5.65625 -9.203125 C 5.300781 -9.203125 4.957031 -9.128906 4.625 -8.984375 C 4.300781 -8.835938 4.019531 -8.632812 3.78125 -8.375 C 3.539062 -8.125 3.351562 -7.828125 3.21875 -7.484375 C 3.082031 -7.148438 3.015625 -6.789062 3.015625 -6.40625 L 3.015625 0 L 1.015625 0 L 1.015625 -6.390625 C 1.015625 -7.054688 1.125 -7.675781 1.34375 -8.25 C 1.5625 -8.820312 1.875 -9.316406 2.28125 -9.734375 C 2.695312 -10.160156 3.191406 -10.492188 3.765625 -10.734375 C 4.335938 -10.972656 4.96875 -11.09375 5.65625 -11.09375 C 6.351562 -11.09375 6.984375 -10.972656 7.546875 -10.734375 C 8.117188 -10.492188 8.609375 -10.160156 9.015625 -9.734375 C 9.421875 -9.316406 9.738281 -8.820312 9.96875 -8.25 C 10.195312 -7.6875 10.3125 -7.082031 10.3125 -6.4375 Z M 10.3125 0 "/></g></g></g><g fill="#ffffff" fill-opacity="1"><g transform="translate(201.964257, 263.920886)"><g><path d="M 8.34375 -10.875 L 8.34375 -8.96875 L 6.75 -8.96875 C 6.269531 -8.96875 5.8125 -8.890625 5.375 -8.734375 C 4.9375 -8.578125 4.539062 -8.347656 4.1875 -8.046875 C 3.84375 -7.742188 3.566406 -7.375 3.359375 -6.9375 C 3.160156 -6.5 3.0625 -6 3.0625 -5.4375 C 3.0625 -4.894531 3.15625 -4.40625 3.34375 -3.96875 C 3.539062 -3.53125 3.8125 -3.160156 4.15625 -2.859375 C 4.5 -2.554688 4.890625 -2.320312 5.328125 -2.15625 C 5.773438 -1.988281 6.242188 -1.90625 6.734375 -1.90625 L 8.34375 -1.90625 L 8.34375 0 L 6.40625 0 C 5.726562 0 5.0625 -0.125 4.40625 -0.375 C 3.75 -0.632812 3.164062 -1.003906 2.65625 -1.484375 C 2.15625 -1.960938 1.75 -2.535156 1.4375 -3.203125 C 1.125 -3.878906 0.96875 -4.625 0.96875 -5.4375 C 0.96875 -6.269531 1.125 -7.019531 1.4375 -7.6875 C 1.757812 -8.363281 2.175781 -8.9375 2.6875 -9.40625 C 3.207031 -9.875 3.789062 -10.234375 4.4375 -10.484375 C 5.09375 -10.742188 5.75 -10.875 6.40625 -10.875 Z M 8.34375 -10.875 "/></g></g></g><g fill="#ffffff" fill-opacity="1"><g transform="translate(210.773845, 263.920886)"><g><path d="M 3.125 -10.875 L 3.125 -4.28125 C 3.125 -3.9375 3.171875 -3.609375 3.265625 -3.296875 C 3.367188 -2.984375 3.519531 -2.707031 3.71875 -2.46875 C 3.925781 -2.226562 4.191406 -2.035156 4.515625 -1.890625 C 4.835938 -1.742188 5.21875 -1.671875 5.65625 -1.671875 C 6.101562 -1.671875 6.484375 -1.742188 6.796875 -1.890625 C 7.109375 -2.035156 7.367188 -2.226562 7.578125 -2.46875 C 7.796875 -2.707031 7.953125 -2.984375 8.046875 -3.296875 C 8.148438 -3.609375 8.203125 -3.9375 8.203125 -4.28125 L 8.203125 -10.875 L 10.1875 -10.875 L 10.1875 -4.234375 C 10.1875 -1.859375 9.007812 -0.375 6.65625 0.21875 L 6.65625 4.890625 L 4.671875 4.890625 L 4.671875 0.21875 C 2.304688 -0.375 1.125 -1.859375 1.125 -4.234375 L 1.125 -10.875 Z M 3.125 -10.875 "/></g></g></g></svg>