<svg xmlns="http://www.w3.org/2000/svg" xmlns:xlink="http://www.w3.org/1999/xlink" width="500" zoomAndPan="magnify" viewBox="0 0 375 374.999991" height="500" preserveAspectRatio="xMidYMid meet" version="1.0"><defs><clipPath id="43ccd325d9"><path d="M 73 12.09375 L 333 12.09375 L 333 360 L 73 360 Z M 73 12.09375 " clip-rule="nonzero"/></clipPath><clipPath id="a4da74736d"><path d="M 28.199219 99 L 247 99 L 247 311 L 28.199219 311 Z M 28.199219 99 " clip-rule="nonzero"/></clipPath></defs><g clip-path="url(#43ccd325d9)"><path fill="#0583d2" d="M 162.316406 53.386719 C 141.273438 53.386719 120.226562 53.398438 99.183594 53.367188 C 96.308594 53.367188 93.378906 53.417969 90.5625 52.945312 C 79.15625 51.058594 72.867188 43.027344 73.636719 31.644531 C 74.398438 20.355469 82.355469 12.792969 94.246094 12.625 C 114.136719 12.328125 134.023438 12.1875 153.914062 12.207031 C 177.691406 12.226562 201.472656 12.347656 225.25 12.664062 C 281.027344 13.414062 324.824219 52.292969 331.945312 107.710938 C 337.425781 150.402344 312.332031 215.382812 243.707031 226.015625 C 229.980469 228.152344 215.871094 228.023438 201.925781 228.515625 C 190.699219 228.910156 179.441406 228.574219 168.203125 228.742188 C 161.871094 228.832031 158.1875 230.265625 158.265625 238.390625 C 158.503906 262.890625 158.296875 287.402344 158.226562 311.914062 C 158.207031 320.847656 158.335938 329.796875 157.992188 338.714844 C 157.417969 353.625 143.808594 362.800781 129.945312 357.703125 C 121.710938 354.683594 117.414062 348.234375 117.265625 339.800781 C 116.832031 315.171875 116.832031 290.523438 116.792969 265.882812 C 116.773438 248.878906 116.96875 231.863281 117.097656 214.859375 C 117.117188 211.976562 117.117188 209.082031 117.472656 206.226562 C 119.042969 193.46875 125.460938 187.535156 138.417969 187.394531 C 157.300781 187.199219 176.179688 187.394531 195.0625 187.265625 C 207.011719 187.1875 218.980469 187.21875 230.910156 186.546875 C 271.140625 184.304688 313.800781 133.082031 278.625 81.730469 C 266.628906 64.210938 249.949219 54.683594 228.894531 54.070312 C 206.714844 53.417969 184.515625 53.921875 162.316406 53.921875 C 162.316406 53.753906 162.316406 53.566406 162.316406 53.386719 Z M 162.316406 53.386719 " fill-opacity="1" fill-rule="nonzero"/></g><g clip-path="url(#a4da74736d)"><path fill="#0583d2" d="M 98.925781 310.324219 C 90.828125 305.949219 83.324219 302.816406 76.855469 298.226562 C 44.535156 275.363281 28.160156 243.703125 28.398438 204.273438 C 28.675781 157.671875 61.945312 114.554688 105.414062 103.96875 C 117.078125 101.125 129.351562 99.949219 141.390625 99.683594 C 170.058594 99.042969 198.746094 99.308594 227.421875 99.398438 C 235.609375 99.425781 244.8125 108.246094 246.402344 116.945312 C 248.023438 125.773438 242.433594 136.519531 233.753906 139.746094 C 229.558594 141.308594 224.777344 141.898438 220.253906 141.941406 C 192.4375 142.195312 164.617188 141.980469 136.796875 142.285156 C 99.507812 142.699219 70.257812 173.867188 72.371094 211.054688 C 73.4375 229.769531 81.328125 245.441406 95.824219 257.507812 C 98.027344 259.347656 99.015625 261.125 98.984375 264.015625 C 98.859375 278.859375 98.925781 293.703125 98.925781 310.324219 Z M 98.925781 310.324219 " fill-opacity="1" fill-rule="nonzero"/></g><path fill="#0583d2" d="M 175.28125 315.695312 C 175.28125 301.277344 175.28125 287.5 175.28125 273.09375 C 178.777344 273.09375 182.046875 273.09375 185.316406 273.09375 C 211.542969 273.113281 237.773438 273.09375 264 273.191406 C 267.140625 273.203125 270.359375 273.539062 273.414062 274.289062 C 284.117188 276.925781 290.4375 285.140625 290.050781 295.550781 C 289.667969 306.066406 282.921875 313.5625 271.921875 315.496094 C 269.234375 315.972656 266.480469 316.226562 263.753906 316.238281 C 237.675781 316.308594 211.582031 316.316406 185.503906 316.277344 C 182.214844 316.277344 178.925781 315.910156 175.28125 315.695312 Z M 175.28125 315.695312 " fill-opacity="1" fill-rule="nonzero"/></svg>